<mxfile host="app.diagrams.net" modified="2023-03-01T07:49:54.695Z" agent="5.0 (Macintosh; Intel Mac OS X 10_15_7) AppleWebKit/537.36 (KHTML, like Gecko) Chrome/109.0.0.0 Safari/537.36" version="20.8.5" etag="nzmlKYZXnd6biZCh0w5o" type="github">
  <diagram id="9BSfSEBx7n1tUxAudPgJ" name="第 1 页">
    <mxGraphModel dx="2093" dy="611" grid="1" gridSize="10" guides="1" tooltips="1" connect="1" arrows="1" fold="1" page="1" pageScale="1" pageWidth="827" pageHeight="1169" math="0" shadow="0">
      <root>
        <mxCell id="0" />
        <mxCell id="1" parent="0" />
        <mxCell id="_SclktuzGxWFYy_Q4PIl-98" value="" style="rounded=1;whiteSpace=wrap;html=1;" vertex="1" parent="1">
          <mxGeometry x="-260" y="420" width="250" height="450" as="geometry" />
        </mxCell>
        <mxCell id="_SclktuzGxWFYy_Q4PIl-96" value="" style="rounded=1;whiteSpace=wrap;html=1;" vertex="1" parent="1">
          <mxGeometry x="-510" y="585" width="200" height="270" as="geometry" />
        </mxCell>
        <mxCell id="_SclktuzGxWFYy_Q4PIl-86" value="" style="rounded=1;whiteSpace=wrap;html=1;" vertex="1" parent="1">
          <mxGeometry x="80" y="315" width="480" height="165" as="geometry" />
        </mxCell>
        <mxCell id="_SclktuzGxWFYy_Q4PIl-63" value="" style="rounded=1;whiteSpace=wrap;html=1;" vertex="1" parent="1">
          <mxGeometry x="875" y="600" width="505" height="370" as="geometry" />
        </mxCell>
        <mxCell id="_SclktuzGxWFYy_Q4PIl-49" value="" style="rounded=1;whiteSpace=wrap;html=1;" vertex="1" parent="1">
          <mxGeometry x="70" y="600" width="750" height="370" as="geometry" />
        </mxCell>
        <mxCell id="_SclktuzGxWFYy_Q4PIl-50" value="履约中心" style="text;html=1;align=center;verticalAlign=middle;resizable=0;points=[];autosize=1;strokeColor=none;fillColor=none;" vertex="1" parent="1">
          <mxGeometry x="120" y="690" width="70" height="30" as="geometry" />
        </mxCell>
        <mxCell id="_SclktuzGxWFYy_Q4PIl-56" style="edgeStyle=orthogonalEdgeStyle;rounded=0;orthogonalLoop=1;jettySize=auto;html=1;exitX=1;exitY=0.5;exitDx=0;exitDy=0;entryX=0;entryY=0.5;entryDx=0;entryDy=0;" edge="1" parent="1" source="_SclktuzGxWFYy_Q4PIl-51" target="_SclktuzGxWFYy_Q4PIl-54">
          <mxGeometry relative="1" as="geometry" />
        </mxCell>
        <mxCell id="_SclktuzGxWFYy_Q4PIl-51" value="履约单" style="rounded=1;whiteSpace=wrap;html=1;" vertex="1" parent="1">
          <mxGeometry x="140" y="800" width="120" height="60" as="geometry" />
        </mxCell>
        <mxCell id="_SclktuzGxWFYy_Q4PIl-61" style="edgeStyle=orthogonalEdgeStyle;rounded=0;orthogonalLoop=1;jettySize=auto;html=1;exitX=0.75;exitY=0;exitDx=0;exitDy=0;" edge="1" parent="1" source="_SclktuzGxWFYy_Q4PIl-52" target="_SclktuzGxWFYy_Q4PIl-59">
          <mxGeometry relative="1" as="geometry" />
        </mxCell>
        <mxCell id="_SclktuzGxWFYy_Q4PIl-67" style="edgeStyle=orthogonalEdgeStyle;rounded=0;orthogonalLoop=1;jettySize=auto;html=1;exitX=1;exitY=0.5;exitDx=0;exitDy=0;entryX=0;entryY=0.5;entryDx=0;entryDy=0;" edge="1" parent="1" source="_SclktuzGxWFYy_Q4PIl-52" target="_SclktuzGxWFYy_Q4PIl-66">
          <mxGeometry relative="1" as="geometry" />
        </mxCell>
        <mxCell id="_SclktuzGxWFYy_Q4PIl-52" value="出库通知单" style="rounded=1;whiteSpace=wrap;html=1;" vertex="1" parent="1">
          <mxGeometry x="550" y="740" width="120" height="60" as="geometry" />
        </mxCell>
        <mxCell id="_SclktuzGxWFYy_Q4PIl-57" style="edgeStyle=orthogonalEdgeStyle;rounded=0;orthogonalLoop=1;jettySize=auto;html=1;exitX=1;exitY=0.5;exitDx=0;exitDy=0;entryX=0;entryY=0.5;entryDx=0;entryDy=0;" edge="1" parent="1" source="_SclktuzGxWFYy_Q4PIl-54" target="_SclktuzGxWFYy_Q4PIl-52">
          <mxGeometry relative="1" as="geometry" />
        </mxCell>
        <mxCell id="_SclktuzGxWFYy_Q4PIl-58" style="edgeStyle=orthogonalEdgeStyle;rounded=0;orthogonalLoop=1;jettySize=auto;html=1;exitX=1;exitY=0.5;exitDx=0;exitDy=0;entryX=0;entryY=0.5;entryDx=0;entryDy=0;" edge="1" parent="1" source="_SclktuzGxWFYy_Q4PIl-54" target="_SclktuzGxWFYy_Q4PIl-55">
          <mxGeometry relative="1" as="geometry" />
        </mxCell>
        <mxCell id="_SclktuzGxWFYy_Q4PIl-54" value="货品供应单" style="rounded=1;whiteSpace=wrap;html=1;" vertex="1" parent="1">
          <mxGeometry x="330" y="800" width="120" height="60" as="geometry" />
        </mxCell>
        <mxCell id="_SclktuzGxWFYy_Q4PIl-69" style="edgeStyle=orthogonalEdgeStyle;rounded=0;orthogonalLoop=1;jettySize=auto;html=1;exitX=1;exitY=0.5;exitDx=0;exitDy=0;entryX=0;entryY=0.5;entryDx=0;entryDy=0;" edge="1" parent="1" source="_SclktuzGxWFYy_Q4PIl-55" target="_SclktuzGxWFYy_Q4PIl-68">
          <mxGeometry relative="1" as="geometry" />
        </mxCell>
        <mxCell id="_SclktuzGxWFYy_Q4PIl-55" value="入库通知单" style="rounded=1;whiteSpace=wrap;html=1;" vertex="1" parent="1">
          <mxGeometry x="550" y="860" width="120" height="60" as="geometry" />
        </mxCell>
        <mxCell id="_SclktuzGxWFYy_Q4PIl-62" style="edgeStyle=orthogonalEdgeStyle;rounded=0;orthogonalLoop=1;jettySize=auto;html=1;exitX=0;exitY=0.5;exitDx=0;exitDy=0;" edge="1" parent="1" source="_SclktuzGxWFYy_Q4PIl-59" target="_SclktuzGxWFYy_Q4PIl-60">
          <mxGeometry relative="1" as="geometry" />
        </mxCell>
        <mxCell id="_SclktuzGxWFYy_Q4PIl-59" value="Hold单" style="rounded=1;whiteSpace=wrap;html=1;" vertex="1" parent="1">
          <mxGeometry x="650" y="620" width="120" height="60" as="geometry" />
        </mxCell>
        <mxCell id="_SclktuzGxWFYy_Q4PIl-64" style="edgeStyle=orthogonalEdgeStyle;rounded=0;orthogonalLoop=1;jettySize=auto;html=1;exitX=0.25;exitY=1;exitDx=0;exitDy=0;entryX=0.25;entryY=0;entryDx=0;entryDy=0;" edge="1" parent="1" source="_SclktuzGxWFYy_Q4PIl-60" target="_SclktuzGxWFYy_Q4PIl-52">
          <mxGeometry relative="1" as="geometry" />
        </mxCell>
        <mxCell id="_SclktuzGxWFYy_Q4PIl-60" value="拆合单" style="rounded=1;whiteSpace=wrap;html=1;" vertex="1" parent="1">
          <mxGeometry x="480" y="620" width="120" height="60" as="geometry" />
        </mxCell>
        <mxCell id="_SclktuzGxWFYy_Q4PIl-65" value="WMS" style="text;html=1;align=center;verticalAlign=middle;resizable=0;points=[];autosize=1;strokeColor=none;fillColor=none;" vertex="1" parent="1">
          <mxGeometry x="890" y="610" width="50" height="30" as="geometry" />
        </mxCell>
        <mxCell id="_SclktuzGxWFYy_Q4PIl-71" style="edgeStyle=orthogonalEdgeStyle;rounded=0;orthogonalLoop=1;jettySize=auto;html=1;exitX=1;exitY=0.5;exitDx=0;exitDy=0;entryX=0;entryY=0.5;entryDx=0;entryDy=0;" edge="1" parent="1" source="_SclktuzGxWFYy_Q4PIl-66" target="_SclktuzGxWFYy_Q4PIl-72">
          <mxGeometry relative="1" as="geometry" />
        </mxCell>
        <mxCell id="_SclktuzGxWFYy_Q4PIl-66" value="出库任务" style="rounded=1;whiteSpace=wrap;html=1;" vertex="1" parent="1">
          <mxGeometry x="910" y="650" width="120" height="60" as="geometry" />
        </mxCell>
        <mxCell id="_SclktuzGxWFYy_Q4PIl-76" style="edgeStyle=orthogonalEdgeStyle;rounded=0;orthogonalLoop=1;jettySize=auto;html=1;exitX=1;exitY=0.5;exitDx=0;exitDy=0;" edge="1" parent="1" source="_SclktuzGxWFYy_Q4PIl-68" target="_SclktuzGxWFYy_Q4PIl-74">
          <mxGeometry relative="1" as="geometry" />
        </mxCell>
        <mxCell id="_SclktuzGxWFYy_Q4PIl-68" value="入库任务" style="rounded=1;whiteSpace=wrap;html=1;" vertex="1" parent="1">
          <mxGeometry x="910" y="860" width="120" height="60" as="geometry" />
        </mxCell>
        <mxCell id="_SclktuzGxWFYy_Q4PIl-70" value="出库单" style="rounded=1;whiteSpace=wrap;html=1;" vertex="1" parent="1">
          <mxGeometry x="1230" y="650" width="120" height="60" as="geometry" />
        </mxCell>
        <mxCell id="_SclktuzGxWFYy_Q4PIl-73" style="edgeStyle=orthogonalEdgeStyle;rounded=0;orthogonalLoop=1;jettySize=auto;html=1;exitX=1;exitY=0.5;exitDx=0;exitDy=0;" edge="1" parent="1" source="_SclktuzGxWFYy_Q4PIl-72" target="_SclktuzGxWFYy_Q4PIl-70">
          <mxGeometry relative="1" as="geometry" />
        </mxCell>
        <mxCell id="_SclktuzGxWFYy_Q4PIl-72" value="出库作业" style="rounded=1;whiteSpace=wrap;html=1;" vertex="1" parent="1">
          <mxGeometry x="1070" y="650" width="120" height="60" as="geometry" />
        </mxCell>
        <mxCell id="_SclktuzGxWFYy_Q4PIl-77" style="edgeStyle=orthogonalEdgeStyle;rounded=0;orthogonalLoop=1;jettySize=auto;html=1;exitX=1;exitY=0.5;exitDx=0;exitDy=0;entryX=0;entryY=0.5;entryDx=0;entryDy=0;" edge="1" parent="1" source="_SclktuzGxWFYy_Q4PIl-74" target="_SclktuzGxWFYy_Q4PIl-75">
          <mxGeometry relative="1" as="geometry" />
        </mxCell>
        <mxCell id="_SclktuzGxWFYy_Q4PIl-74" value="入库作业" style="rounded=1;whiteSpace=wrap;html=1;" vertex="1" parent="1">
          <mxGeometry x="1070" y="860" width="120" height="60" as="geometry" />
        </mxCell>
        <mxCell id="_SclktuzGxWFYy_Q4PIl-75" value="入库单" style="rounded=1;whiteSpace=wrap;html=1;" vertex="1" parent="1">
          <mxGeometry x="1230" y="860" width="120" height="60" as="geometry" />
        </mxCell>
        <mxCell id="_SclktuzGxWFYy_Q4PIl-78" value="商品" style="rounded=1;whiteSpace=wrap;html=1;" vertex="1" parent="1">
          <mxGeometry x="-470" y="655" width="120" height="60" as="geometry" />
        </mxCell>
        <mxCell id="_SclktuzGxWFYy_Q4PIl-79" value="货品" style="rounded=1;whiteSpace=wrap;html=1;" vertex="1" parent="1">
          <mxGeometry x="-470" y="765" width="120" height="60" as="geometry" />
        </mxCell>
        <mxCell id="_SclktuzGxWFYy_Q4PIl-80" value="仓库实物库存" style="rounded=1;whiteSpace=wrap;html=1;" vertex="1" parent="1">
          <mxGeometry x="-195" y="765" width="120" height="60" as="geometry" />
        </mxCell>
        <mxCell id="_SclktuzGxWFYy_Q4PIl-81" value="销售公共库存&lt;br&gt;（履约围栏库存）" style="rounded=1;whiteSpace=wrap;html=1;" vertex="1" parent="1">
          <mxGeometry x="-195" y="670" width="120" height="60" as="geometry" />
        </mxCell>
        <mxCell id="_SclktuzGxWFYy_Q4PIl-85" value="销售订单" style="rounded=1;whiteSpace=wrap;html=1;" vertex="1" parent="1">
          <mxGeometry x="120" y="380" width="120" height="60" as="geometry" />
        </mxCell>
        <mxCell id="_SclktuzGxWFYy_Q4PIl-87" value="Saas" style="text;html=1;align=center;verticalAlign=middle;resizable=0;points=[];autosize=1;strokeColor=none;fillColor=none;" vertex="1" parent="1">
          <mxGeometry x="100" y="330" width="50" height="30" as="geometry" />
        </mxCell>
        <mxCell id="_SclktuzGxWFYy_Q4PIl-88" value="销售退货单" style="rounded=1;whiteSpace=wrap;html=1;" vertex="1" parent="1">
          <mxGeometry x="270" y="380" width="120" height="60" as="geometry" />
        </mxCell>
        <mxCell id="_SclktuzGxWFYy_Q4PIl-89" value="出样订单" style="rounded=1;whiteSpace=wrap;html=1;" vertex="1" parent="1">
          <mxGeometry x="420" y="380" width="120" height="60" as="geometry" />
        </mxCell>
        <mxCell id="_SclktuzGxWFYy_Q4PIl-97" value="商品货品中心" style="text;html=1;align=center;verticalAlign=middle;resizable=0;points=[];autosize=1;strokeColor=none;fillColor=none;" vertex="1" parent="1">
          <mxGeometry x="-500" y="595" width="100" height="30" as="geometry" />
        </mxCell>
        <mxCell id="_SclktuzGxWFYy_Q4PIl-99" value="库存中心" style="text;html=1;align=center;verticalAlign=middle;resizable=0;points=[];autosize=1;strokeColor=none;fillColor=none;" vertex="1" parent="1">
          <mxGeometry x="-190" y="440" width="70" height="30" as="geometry" />
        </mxCell>
        <mxCell id="_SclktuzGxWFYy_Q4PIl-100" value="围栏" style="rounded=1;whiteSpace=wrap;html=1;" vertex="1" parent="1">
          <mxGeometry x="-160" y="590" width="120" height="60" as="geometry" />
        </mxCell>
      </root>
    </mxGraphModel>
  </diagram>
</mxfile>
